<?xml version="1.0" encoding="UTF-8"?>
<svg width="376px" height="300px" viewBox="0 0 376 300" version="1.1" xmlns="http://www.w3.org/2000/svg" xmlns:xlink="http://www.w3.org/1999/xlink">
    <!-- Generator: Sketch 39.1 (31720) - http://www.bohemiancoding.com/sketch -->
    <title>browser</title>
    <desc>Created with Sketch.</desc>
    <defs></defs>
    <g id="Page-1" stroke="none" stroke-width="1" fill="none" fill-rule="evenodd">
        <g id="_x32_1">
            <path d="M20.4959684,299.046 C9.45250001,299.046 0.5,290.084435 0.5,279.05421 L0.5,20.95579 C0.5,9.91462926 9.44569468,0.964 20.4959684,0.964 L355.504032,0.964 C366.5475,0.964 375.5,9.92556502 375.5,20.95579 L375.5,279.05421 C375.5,290.095371 366.554305,299.046 355.504032,299.046 L20.4959684,299.046 Z M328.508,32.897 C328.508,38.639 333.137,43.297 338.894,43.297 C344.672,43.297 349.338,38.639 349.338,32.897 C349.338,27.17 344.672,22.467 338.894,22.467 C333.137,22.468 328.508,27.171 328.508,32.897 L328.508,32.897 Z M256.071,32.897 C256.071,37.454 259.785,41.159 264.362,41.159 L307.707,41.159 C312.285,41.159 315.983,37.454 315.983,32.897 C315.983,28.297 312.285,24.606 307.707,24.606 L264.362,24.606 C259.785,24.606 256.071,28.298 256.071,32.897 L256.071,32.897 Z M358.684,60.143 L22.146,60.143 L22.146,263.815 C22.171,272.59 29.416,279.856 38.161,279.856 L342.643,279.856 C351.403,279.856 358.668,272.59 358.683,263.815 L358.683,60.143 L358.684,60.143 Z" id="Shape" fill="#000000"></path>
            <path d="M70.827,171.237 L137.031,138.147 L137.031,154.157 L91.427,175.296 L137.031,194.03 L137.031,209.968 L70.827,180.759 L70.827,171.237 L70.827,171.237 Z M170.008,223.518 L188.465,223.518 L224.812,126.032 L206.355,126.032 L170.008,223.518 L170.008,223.518 Z M231.345,138.147 L231.345,154.157 L276.96,175.296 L231.345,194.03 L231.345,209.968 L297.571,180.759 L297.571,171.237 L231.345,138.147 L231.345,138.147 Z" id="Shape" fill="#000000"></path>
            <g id="Group" transform="translate(123.000000, 73.000000)" fill="#FFFFFF">
                <path d="M39.845,48.185 C42.522,45.49 44.338,40.581 44.852,38.384 C45.265,40.597 46.884,45.577 49.433,48.39 C52.623,51.876 56.245,54.015 58.497,53.941 C56.073,54.425 52.491,57.062 49.302,60.914 C46.251,64.605 44.395,67.974 44.2,70.406 C44.101,67.961 42.376,64.504 39.505,60.724 C36.485,56.753 33.028,53.956 30.644,53.341 C32.895,53.458 36.557,51.495 39.845,48.185 L39.845,48.185 Z" id="Shape"></path>
                <path d="M67.775,24.337 C69.453,22.651 70.592,19.575 70.918,18.198 C71.179,19.591 72.178,22.71 73.781,24.483 C75.781,26.665 78.037,28.012 79.458,27.924 C77.935,28.262 75.701,29.916 73.701,32.319 C71.785,34.604 70.625,36.729 70.5,38.266 C70.435,36.729 69.354,34.575 67.557,32.188 C65.666,29.698 63.502,27.954 62.004,27.573 C63.414,27.647 65.707,26.417 67.775,24.337 L67.775,24.337 Z" id="Shape"></path>
                <path d="M10.449,11.944 C13.203,8.735 14.829,3.139 15.22,0.62 C15.861,3.081 18.051,8.487 21.142,11.372 C24.921,14.962 29.071,17.042 31.568,16.837 C28.931,17.583 25.181,20.821 21.966,25.347 C18.882,29.669 17.073,33.579 17.066,36.349 C16.758,33.595 14.543,29.904 11.046,25.904 C7.333,21.744 3.264,18.931 0.547,18.433 C3.062,18.462 7.025,15.942 10.449,11.944 L10.449,11.944 Z" id="Shape"></path>
            </g>
        </g>
    </g>
</svg>