<?xml version="1.0" encoding="UTF-8"?>
<svg width="84px" height="137px" viewBox="0 0 84 137" version="1.1" xmlns="http://www.w3.org/2000/svg" xmlns:xlink="http://www.w3.org/1999/xlink">
    <!-- Generator: Sketch 43.2 (39069) - http://www.bohemiancoding.com/sketch -->
    <title>ear-left</title>
    <desc>Created with Sketch.</desc>
    <defs></defs>
    <g id="Page-1" stroke="none" stroke-width="1" fill="none" fill-rule="evenodd">
        <rect id="Rectangle-2" fill="#E7EFF5" x="-2288" y="-2" width="2803" height="838"></rect>
        <g id="Poes-overlay" transform="translate(-166.000000, 0.000000)">
            <g id="Ears" transform="translate(165.963462, 0.000000)">
                <g id="left" transform="translate(2.000000, 1.000000)">
                    <path d="M0.26278926,131.781913 L16.1951998,31.8457489 C16.1951998,31.8457489 21.7611784,12.1584118 40.3969829,19.7817337 C59.0327874,27.4050555 80.2078723,64.0269726 80.2078723,64.0269726 C80.2078723,64.0269726 45.6702899,84.4817308 30.0361002,97.7319965 C14.4019105,110.982262 0.26278926,131.781913 0.26278926,131.781913 Z" id="Path-10" stroke="#241808" stroke-width="2" fill="#C28838"></path>
                    <path d="M25.5373951,97.5878778 L32.8732912,54.2891848 C32.8732912,54.2891848 36.3829858,47.5336137 41.9843071,51.4543989 C47.5856285,55.3751841 63.5593269,70.2779074 63.5593269,70.2779074 C63.5593269,70.2779074 48.6834376,79.3623811 41.9843071,84.1741581 C35.2851767,88.985935 25.5373951,97.5878778 25.5373951,97.5878778 Z" id="Path-13" fill="#F0A08E"></path>
                    <path d="M28.7938847,18.0087563 C23.8588364,19.0244246 15.3505352,33.6349784 15.3505352,33.6349784 L18.9793996,0.441623228 L51.1074918,26.2389955 C51.1074918,26.2389955 35.5724981,16.6136691 28.7938847,18.0087563 Z" id="Path-107" stroke="#241808" fill="#241808" stroke-linejoin="round"></path>
                </g>
            </g>
        </g>
    </g>
</svg>