<?xml version="1.0" encoding="UTF-8"?>
<svg width="88px" height="124px" viewBox="0 0 88 124" version="1.1" xmlns="http://www.w3.org/2000/svg" xmlns:xlink="http://www.w3.org/1999/xlink">
    <!-- Generator: Sketch 43.2 (39069) - http://www.bohemiancoding.com/sketch -->
    <title>ear-right</title>
    <desc>Created with Sketch.</desc>
    <defs></defs>
    <g id="Page-1" stroke="none" stroke-width="1" fill="none" fill-rule="evenodd">
        <rect id="Rectangle-2" fill="#E7EFF5" x="-2490" y="-9" width="2803" height="838"></rect>
        <g id="Poes-overlay" transform="translate(-368.000000, -7.000000)">
            <g id="Ears" transform="translate(165.963462, 0.000000)">
                <g id="right" transform="translate(204.000000, 7.000000)">
                    <path d="M0.0540451263,56.7965143 L37.3453098,20.8805331 C37.3453098,20.8805331 58.3670955,6.78547151 64.4951743,27.8965132 C70.6232532,49.0075548 84.1097442,120.023151 84.1097442,120.023151 C84.1097442,120.023151 60.1447237,89.6977652 44.7538762,78.1207808 C29.3630287,66.5437963 0.0540451263,56.7965143 0.0540451263,56.7965143 Z" id="Path-11" stroke="#241808" stroke-width="2" fill="#C28838"></path>
                    <path d="M24.5469442,62.5388418 L41.1531522,43.4784678 C41.1531522,43.4784678 50.3756768,37.246685 51.0385313,48.1648768 C51.7013859,59.0830687 56.3134628,83.3699061 56.3134628,83.3699061 C56.3134628,83.3699061 46.7186958,75.769937 41.1531522,72.0379017 C35.5876086,68.3058665 24.5469442,62.5388418 24.5469442,62.5388418 Z" id="Path-14" fill="#F0A08E"></path>
                    <path d="M54.2858047,15.3588991 C49.1872562,14.3765904 37.2018358,20.2550477 37.2018358,20.2550477 L58.9880645,0.577137456 L65.5863279,29.5653553 C65.5863279,29.5653553 59.7733628,16.4161561 54.2858047,15.3588991 Z" id="Path-108" stroke="#241808" fill="#241808" stroke-linejoin="round"></path>
                </g>
            </g>
        </g>
    </g>
</svg>