<?xml version="1.0" encoding="UTF-8"?>
<svg width="209px" height="209px" viewBox="0 0 209 209" version="1.1" xmlns="http://www.w3.org/2000/svg" xmlns:xlink="http://www.w3.org/1999/xlink">
    <!-- Generator: Sketch 39.1 (31720) - http://www.bohemiancoding.com/sketch -->
    <title>favicon-robot</title>
    <desc>Created with Sketch.</desc>
    <defs>
        <path d="M0.680888675,8.62035656 C0.680888673,2.96364212 1.22461724,4.09133406 1.22461724,4.09133406 C2.20513406,1.83175265 5.0141404,0 7.49823631,0 L54.6288331,0 C57.1131404,0 59.1270694,2.01841229 59.1270694,4.49797502 L59.1270694,11.962785 C59.1270694,14.446948 57.112929,16.46076 54.6288331,16.46076 L7.49823631,16.46076 C5.01392899,16.46076 1.89478082,14.7772294 1.09016084,12.4399113 C1.09016084,12.4399113 0.680888677,14.277071 0.680888675,8.62035656 Z" id="path-1"></path>
        <mask id="mask-2" maskContentUnits="userSpaceOnUse" maskUnits="objectBoundingBox" x="0" y="0" width="58.4461807" height="16.46076" fill="white">
            <use xlink:href="#path-1"></use>
        </mask>
        <rect id="path-3" x="3" y="26" width="9" height="19" rx="1"></rect>
        <mask id="mask-4" maskContentUnits="userSpaceOnUse" maskUnits="objectBoundingBox" x="0" y="0" width="9" height="19" fill="white">
            <use xlink:href="#path-3"></use>
        </mask>
        <rect id="path-5" x="4" y="14" width="7" height="14" rx="1"></rect>
        <mask id="mask-6" maskContentUnits="userSpaceOnUse" maskUnits="objectBoundingBox" x="0" y="0" width="7" height="14" fill="white">
            <use xlink:href="#path-5"></use>
        </mask>
        <rect id="path-7" x="0" y="3" width="39" height="27" rx="3"></rect>
        <mask id="mask-8" maskContentUnits="userSpaceOnUse" maskUnits="objectBoundingBox" x="0" y="0" width="39" height="27" fill="white">
            <use xlink:href="#path-7"></use>
        </mask>
    </defs>
    <g id="Page-1" stroke="none" stroke-width="1" fill="none" fill-rule="evenodd">
        <rect id="Rectangle-2" fill="#E7EFF5" x="-1895" y="-387" width="2803" height="838"></rect>
        <g id="Poes-Robot" transform="translate(4.000000, 7.000000)">
            <g id="Cat">
                <g id="Body" transform="translate(35.000000, 34.000000)" stroke-width="2" stroke="#241808" fill="#AFAFAF">
                    <path d="M108.674179,33.3090935 C112.524421,38.4343275 115.485962,44.2028816 117.176554,50.3676407 C122.878374,71.1593887 130.660156,196.375 130.660156,196.375 L0.292272225,196.374999 C0.292272225,196.374999 -0.363100857,108.512086 13.0925368,54.8601364 C15.0413064,47.0897658 17.6629397,40.4777357 20.8440062,34.9199435 L19.6052315,35.9663667 L24.6326211,4.53599332 C24.6326211,4.53599332 26.3889368,-1.65576277 32.2693683,0.74180625 C37.2345368,2.76620429 42.7709487,11.2926987 44.3741008,13.8978786 C52.586338,10.6922702 61.7608988,9.8871033 71.3647537,10.9931812 C75.4388302,11.4623935 79.5215663,12.5148516 83.4880926,14.0698307 L95.0464818,2.97441061 C95.0464818,2.97441061 101.679797,-1.45854968 103.613481,5.18096791 C105.547164,11.8204855 109.802757,34.1552099 109.802757,34.1552099 L108.674179,33.3090935 Z"></path>
                </g>
                <g id="Face">
                    <g id="Rivets" transform="translate(40.000000, 47.000000)" fill="#656565">
                        <circle id="Oval-9" cx="1.5" cy="114.5" r="1.5"></circle>
                        <circle id="Oval-9" cx="3.5" cy="95.5" r="1.5"></circle>
                        <circle id="Oval-9" cx="4.5" cy="86.5" r="1.5"></circle>
                        <circle id="Oval-9" cx="5.5" cy="77.5" r="1.5"></circle>
                        <circle id="Oval-9" cx="6.5" cy="70.5" r="1.5"></circle>
                        <circle id="Oval-9" cx="15.5" cy="29.5" r="1.5"></circle>
                        <circle id="Oval-9" cx="20.5" cy="22.5" r="1.5"></circle>
                        <circle id="Oval-9" cx="25.5" cy="16.5" r="1.5"></circle>
                        <circle id="Oval-9" cx="30.5" cy="11.5" r="1.5"></circle>
                        <circle id="Oval-9" cx="37.5" cy="6.5" r="1.5"></circle>
                        <path d="M46.5,4 C47.3284271,4 48,3.32842712 48,2.5 C48,1.67157288 47.3284271,1 46.5,1 C45.6715729,1 45,1.67157288 45,2.5 C45,3.32842712 45.6715729,4 46.5,4 Z" id="Oval-9"></path>
                        <path d="M58.5,3 C59.3284271,3 60,2.32842712 60,1.5 C60,0.671572875 59.3284271,0 58.5,0 C57.6715729,0 57,0.671572875 57,1.5 C57,2.32842712 57.6715729,3 58.5,3 Z" id="Oval-9"></path>
                        <path d="M70.5,4 C71.3284271,4 72,3.32842712 72,2.5 C72,1.67157288 71.3284271,1 70.5,1 C69.6715729,1 69,1.67157288 69,2.5 C69,3.32842712 69.6715729,4 70.5,4 Z" id="Oval-9"></path>
                        <path d="M81.5,8 C82.3284271,8 83,7.32842712 83,6.5 C83,5.67157288 82.3284271,5 81.5,5 C80.6715729,5 80,5.67157288 80,6.5 C80,7.32842712 80.6715729,8 81.5,8 Z" id="Oval-9"></path>
                        <path d="M90.5,13 C91.3284271,13 92,12.3284271 92,11.5 C92,10.6715729 91.3284271,10 90.5,10 C89.6715729,10 89,10.6715729 89,11.5 C89,12.3284271 89.6715729,13 90.5,13 Z" id="Oval-9"></path>
                        <path d="M96.5,18 C97.3284271,18 98,17.3284271 98,16.5 C98,15.6715729 97.3284271,15 96.5,15 C95.6715729,15 95,15.6715729 95,16.5 C95,17.3284271 95.6715729,18 96.5,18 Z" id="Oval-9"></path>
                        <path d="M101.5,24 C102.328427,24 103,23.3284271 103,22.5 C103,21.6715729 102.328427,21 101.5,21 C100.671573,21 100,21.6715729 100,22.5 C100,23.3284271 100.671573,24 101.5,24 Z" id="Oval-9"></path>
                        <path d="M104.5,31 C105.328427,31 106,30.3284271 106,29.5 C106,28.6715729 105.328427,28 104.5,28 C103.671573,28 103,28.6715729 103,29.5 C103,30.3284271 103.671573,31 104.5,31 Z" id="Oval-9"></path>
                        <path d="M113.5,75 C114.328427,75 115,74.3284271 115,73.5 C115,72.6715729 114.328427,72 113.5,72 C112.671573,72 112,72.6715729 112,73.5 C112,74.3284271 112.671573,75 113.5,75 Z" id="Oval-9"></path>
                        <path d="M114.5,85 C115.328427,85 116,84.3284271 116,83.5 C116,82.6715729 115.328427,82 114.5,82 C113.671573,82 113,82.6715729 113,83.5 C113,84.3284271 113.671573,85 114.5,85 Z" id="Oval-9"></path>
                        <path d="M115.5,96 C116.328427,96 117,95.3284271 117,94.5 C117,93.6715729 116.328427,93 115.5,93 C114.671573,93 114,93.6715729 114,94.5 C114,95.3284271 114.671573,96 115.5,96 Z" id="Oval-9"></path>
                        <path d="M116.5,104 C117.328427,104 118,103.328427 118,102.5 C118,101.671573 117.328427,101 116.5,101 C115.671573,101 115,101.671573 115,102.5 C115,103.328427 115.671573,104 116.5,104 Z" id="Oval-9"></path>
                        <path d="M117.5,113 C118.328427,113 119,112.328427 119,111.5 C119,110.671573 118.328427,110 117.5,110 C116.671573,110 116,110.671573 116,111.5 C116,112.328427 116.671573,113 117.5,113 Z" id="Oval-9"></path>
                        <path d="M107.5,118 C108.328427,118 109,117.328427 109,116.5 C109,115.671573 108.328427,115 107.5,115 C106.671573,115 106,115.671573 106,116.5 C106,117.328427 106.671573,118 107.5,118 Z" id="Oval-9"></path>
                        <path d="M107.5,118 C108.328427,118 109,117.328427 109,116.5 C109,115.671573 108.328427,115 107.5,115 C106.671573,115 106,115.671573 106,116.5 C106,117.328427 106.671573,118 107.5,118 Z" id="Oval-9"></path>
                        <path d="M95.5,121 C96.3284271,121 97,120.328427 97,119.5 C97,118.671573 96.3284271,118 95.5,118 C94.6715729,118 94,118.671573 94,119.5 C94,120.328427 94.6715729,121 95.5,121 Z" id="Oval-9"></path>
                        <path d="M81.5,124 C82.3284271,124 83,123.328427 83,122.5 C83,121.671573 82.3284271,121 81.5,121 C80.6715729,121 80,121.671573 80,122.5 C80,123.328427 80.6715729,124 81.5,124 Z" id="Oval-9"></path>
                        <path d="M67.5,126 C68.3284271,126 69,125.328427 69,124.5 C69,123.671573 68.3284271,123 67.5,123 C66.6715729,123 66,123.671573 66,124.5 C66,125.328427 66.6715729,126 67.5,126 Z" id="Oval-9"></path>
                        <path d="M53.5,126 C54.3284271,126 55,125.328427 55,124.5 C55,123.671573 54.3284271,123 53.5,123 C52.6715729,123 52,123.671573 52,124.5 C52,125.328427 52.6715729,126 53.5,126 Z" id="Oval-9"></path>
                        <path d="M39.5,126 C40.3284271,126 41,125.328427 41,124.5 C41,123.671573 40.3284271,123 39.5,123 C38.6715729,123 38,123.671573 38,124.5 C38,125.328427 38.6715729,126 39.5,126 Z" id="Oval-9"></path>
                        <path d="M27.5,123 C28.3284271,123 29,122.328427 29,121.5 C29,120.671573 28.3284271,120 27.5,120 C26.6715729,120 26,120.671573 26,121.5 C26,122.328427 26.6715729,123 27.5,123 Z" id="Oval-9"></path>
                        <path d="M12.5,120 C13.3284271,120 14,119.328427 14,118.5 C14,117.671573 13.3284271,117 12.5,117 C11.6715729,117 11,117.671573 11,118.5 C11,119.328427 11.6715729,120 12.5,120 Z" id="Oval-9"></path>
                        <circle id="Oval-9" cx="2.5" cy="104.5" r="1.5"></circle>
                    </g>
                    <g id="Eyes" transform="translate(43.000000, 75.000000)" stroke="#241808">
                        <circle id="Oval" stroke-width="2" fill="#FFFFFF" cx="22" cy="25" r="22"></circle>
                        <circle id="Oval" stroke-width="2" fill="#FFFFFF" cx="93" cy="22.972377" r="22"></circle>
                        <path d="M93,33 C98.5228475,33 103,28.5228475 103,23 C103,17.4771525 98.5228475,13 93,13 C87.4771525,13 83,17.4771525 83,23 C83,28.5228475 87.4771525,33 93,33 Z" id="Oval-2" fill="#241808"></path>
                        <path d="M21.5,34 C26.1944204,34 30,30.1944204 30,25.5 C30,20.8055796 26.1944204,17 21.5,17 C16.8055796,17 13,20.8055796 13,25.5 C13,30.1944204 16.8055796,34 21.5,34 Z" id="Oval-2" fill="#241808"></path>
                    </g>
                    <g id="Nose" transform="translate(83.000000, 116.000000)" fill="#656565">
                        <path d="M4.45885972,4.05779032 C0.851489687,-0.632108303 27.1247751,-0.243056215 30.6559407,2.23009408 C34.1871063,4.70324438 29.566444,10.0122079 17.6350002,15.9270615 C11.1153906,11.3608707 8.06622974,8.74768894 4.45885972,4.05779032 Z" id="Path-12"></path>
                    </g>
                    <g id="Mouth" transform="translate(69.000000, 144.000000)" stroke="#241808">
                        <use id="Rectangle-5" mask="url(#mask-2)" stroke-width="4" stroke-linecap="round" stroke-linejoin="round" fill="#FFFFFF" xlink:href="#path-1"></use>
                        <polyline id="Path-110" stroke-width="2" points="10.6168217 15.7923391 10.6168217 1.07120043 16.8632664 1.07120043 16.8632664 15.3179274 22.349172 15.3179274 22.349172 1.07120043 28.1702179 1.07120043 28.1702179 15.3179274 33.1399044 15.3179274 33.1399044 1.07120043 38.6959652 1.07120043 38.6959652 15.3179274 43.9646229 15.3179274 43.9646229 1.07120043 49.327393 1.07120043 49.3273946 15.5225959"></polyline>
                    </g>
                    <g id="Whiskers" transform="translate(0.000000, 124.000000)">
                        <path d="M63.6537896,8.39964186 C63.6537896,8.39964186 43.6595785,-2.10352132 5.65072837,3.14806027" id="Path-4" stroke="#241808" stroke-linecap="round"></path>
                        <path d="M69.9968666,18.4463615 C69.9968666,18.4463615 56.55783,10.4982904 11.6440307,17.8286743" id="Path-5" stroke="#241808" stroke-linecap="round"></path>
                        <path d="M135.346437,8.2173125 C135.346437,8.2173125 156.155547,-0.654082166 194.629524,2.12354294" id="Path-6" stroke="#241808" stroke-linecap="round"></path>
                        <path d="M129.050492,18.0953464 C129.050492,18.0953464 145.432844,11.6133518 190.371452,17.4999853" id="Path-7" stroke="#241808" stroke-linecap="round"></path>
                        <path d="M144.635311,10.4226295 C144.635311,10.4226295 179.682241,2.65936839 199.86002,10.8356613" id="Path-8" stroke="#241808" stroke-linecap="round"></path>
                        <path d="M53.640559,9.06694249 C53.640559,9.06694249 25.6052494,3.05999643 1.70273967,13.8930889" id="Path-9" stroke="#241808" stroke-linecap="round"></path>
                        <circle id="Oval-7" fill="#241808" cx="6" cy="3" r="2"></circle>
                        <circle id="Oval-7" fill="#241808" cx="2" cy="14" r="2"></circle>
                        <circle id="Oval-7" fill="#241808" cx="12" cy="18" r="2"></circle>
                        <circle id="Oval-7" fill="#241808" cx="195" cy="2" r="2"></circle>
                        <circle id="Oval-7" fill="#241808" cx="199" cy="11" r="2"></circle>
                        <circle id="Oval-7" fill="#241808" cx="191" cy="18" r="2"></circle>
                    </g>
                    <g id="Ears" transform="translate(54.000000, 28.000000)">
                        <path d="M8.8780118,31.2726475 L10.8953064,17.5945549 C10.8953064,17.5945549 12.0027723,15.4698974 13.7702402,16.703002 C15.5377082,17.9361066 20.0454179,22.327407 20.0454179,22.327407 L8.8780118,31.2726475 Z" id="Path-13" fill="#656565"></path>
                        <path d="M72.1599376,22.0297508 L77.2480268,16.0815628 C77.2480268,16.0815628 80.1581466,14.121639 80.3673069,17.5554595 C80.5764673,20.98928 81.9695413,29.2383358 81.9695413,29.2383358 L72.1599376,22.0297508 Z" id="Path-14" fill="#656565"></path>
                        <path d="M0.783541341,42.787721 C0.783541341,42.787721 10.3241841,25.7569268 26.0935203,19.8303835" id="Path-15" stroke="#241808" stroke-width="2"></path>
                        <path d="M88.9736418,38.4604504 C88.9736418,38.4604504 82.0779375,24.9813442 64.5747179,20.1482443" id="Path-16" stroke="#241808" stroke-width="2"></path>
                        <path d="M9.60807081,6.18419688 C8.05084188,6.50362914 5.07928798,11.0609249 5.07928798,11.0609249 L6.51116089,0.659254483 L16.888946,8.54967349 C16.888946,8.54967349 11.7470271,5.74543567 9.60807081,6.18419688 Z" id="Path-107" stroke="#241808" stroke-linejoin="round" fill="#241808"></path>
                        <path d="M81.3919672,7.23783187 C79.7831467,6.92889135 75.7560336,8.55802134 75.7560336,8.55802134 L82.8757409,2.58890132 L85.1871001,11.4824016 C85.1871001,11.4824016 83.1235377,7.57034396 81.3919672,7.23783187 Z" id="Path-108" stroke="#241808" stroke-linejoin="round" fill="#241808"></path>
                    </g>
                    <g id="Antenna" transform="translate(92.000000, 0.000000)" stroke="#241808" fill="#AFAFAF">
                        <use id="Rectangle-6" mask="url(#mask-4)" stroke-width="4" xlink:href="#path-3"></use>
                        <use id="Rectangle-6" mask="url(#mask-6)" stroke-width="4" xlink:href="#path-5"></use>
                        <circle id="Oval-8" stroke-width="2" cx="7.5" cy="7.5" r="7.5"></circle>
                    </g>
                </g>
            </g>
            <g id="Sweater" transform="translate(35.000000, 163.000000)">
                <path d="M0.484652061,65.8913384 L2.49271156,0.684489652 C2.49271156,0.684489652 53.8418936,27.7319522 125.514469,0.684489652 C126.637098,0.260837098 126.965823,8.75764212 126.965823,8.75764212 L131.049088,66.8944796 L0.484652061,65.8913384 Z" id="Path-67" stroke="#241808" stroke-width="2" stroke-linecap="round" stroke-linejoin="round" fill="#0A3252"></path>
                <path d="M2,10 C2,10 55.2646948,35.7918277 126.425034,8.60296585" id="Path-66" stroke="#241808" stroke-width="2"></path>
                <g id="Fibers-dark" opacity="0.46020154" transform="translate(9.000000, 20.000000)" stroke-width="2" stroke-linecap="round" stroke-linejoin="round">
                    <path d="M0.471133401,0.702775986 L0.377336284,3.38995172" id="Path-65" stroke="#241808"></path>
                    <path d="M6.65169343,5.6399659 L6.74828213,8.05579998" id="Path-68" stroke="#241808"></path>
                    <path d="M16.5629221,18.6409163 L16.7946233,16.037488" id="Path-71" stroke="#241808"></path>
                    <polyline id="Path-74" stroke="#241808" points="30.9116478 11.9746212 30.9116478 11.515127 30.9116478 11.4682284 30.9116478 11.3671732 30.9116478 11.3202746 30.9116478 11.2192194 30.9116478 11.1723209 30.9116478 11.0712656 30.9116478 10.9702104 30.9116478 10.8764133 30.9116478 10.7753581 30.9116478 10.5732476 30.9116478 10.526349 30.9116478 10.3783953 30.9116478 10.3314967 30.9116478 10.2845981 30.9116478 10.2376996 30.9116478 10.190801 30.9116478 10.1439025 30.9116478 10.0970039 30.9116478 10.0032068 30.9116478 9.95630823 30.9116478 9.86251111 30.9116478 9.81561255 30.9116478 9.76871399 30.9116478 9.72181543 30.9116478 9.67491688 30.9116478 9.62801832 30.9116478 9.58111976 30.9116478 9.5342212 30.9116478 9.48732264 30.9116478 9.44042408 30.9116478 9.39352553 30.9116478 9.34662697 30.9116478 9.39296721"></polyline>
                    <path d="M46.3786807,11.1293305 C46.3161493,10.6274043 46.2536179,10.125478 46.1910864,9.62355179" id="Path-75" stroke="#241808"></path>
                    <path d="M62.5832493,10.1109618 L62.6759297,9.59507766" id="Path-76" stroke="#241808"></path>
                    <path d="M77.3501537,14.1006892 L77.3032551,11.7920518" id="Path-77" stroke="#241808"></path>
                    <path d="M93.8098728,11.9695963 L93.2867305,8.8921576" id="Path-82" stroke="#241808"></path>
                    <path d="M106.915228,9.60512735 L106.127444,6.41211716" id="Path-83" stroke="#241808"></path>
                    <path d="M112.682634,21.5609099 L111.301918,18.9881889" id="Path-84" stroke="#241808"></path>
                    <path d="" id="Path-87" stroke="#979797"></path>
                </g>
                <g id="Fibers-light" opacity="0.25928442" transform="translate(7.000000, 19.000000)" stroke-width="2" stroke-linecap="round">
                    <path d="M20.5611357,9.32323342 C20.4973016,8.48873685 20.4334674,7.65424028 20.3696333,6.81974371" id="Path-88" stroke="#FFFEFE" stroke-linejoin="round"></path>
                    <path d="M10.7783197,18.1965524 L10.1613804,15.9510047" id="Path-89" stroke="#FFFEFE" stroke-linejoin="round"></path>
                    <path d="M28.2770652,22.1086738 C28.1343224,21.2090403 27.9915795,20.3094069 27.8488367,19.4097734" id="Path-93" stroke="#FFFEFE" stroke-linejoin="round"></path>
                    <polyline id="Path-94" stroke="#FFFEFE" stroke-linejoin="round" points="39.5706847 19.8625678 39.5706847 19.3170929 39.5706847 19.1535063 39.5706847 18.826333 39.5706847 18.6627464 39.5706847 18.5616911 39.5706847 18.4606359 39.5706847 18.4137373 39.5706847 18.2657836 39.5706847 18.1647283 39.5706847 18.0709312 39.5706847 17.9771341 39.5706847 17.9302355 39.5706847 17.883337 39.5706847 17.8364384 39.5706847 17.7895399 39.5706847 17.7426413 39.5706847 17.6957427 39.5706847 17.6488442 39.5706847 17.6019456 39.5706847 17.6482859 39.5706847 17.6946261 39.5706847 17.7409664"></polyline>
                    <path d="M93.0690987,21.1455784 L92.9211449,17.8537462" id="Path-99" stroke="#FFFEFE" stroke-linejoin="round"></path>
                    <path d="M113.346584,3.56866863 L113.065192,0.51188759" id="Path-100" stroke="#FFFEFE" stroke-linejoin="round"></path>
                    <polyline id="Path-101" stroke="#FFFEFE" stroke-linejoin="round" points="104.567062 17.0397212 104.567062 16.603118 104.567062 16.5562194 104.567062 16.5093209 104.567062 16.4624223 104.567062 16.4155238 104.567062 16.3686252 104.567062 16.3217266 104.567062 16.2279295 104.567062 16.181031 104.567062 16.1341324 104.567062 16.0872339 104.567062 16.0403353 104.567062 15.9934367 104.567062 15.9465382 104.567062 15.8996396 104.567062 15.8527411 104.567062 15.8058425 104.567062 15.7589439 104.567062 15.7120454 104.567062 15.6651468 104.567062 15.6182483 104.567062 15.5244511 104.567062 15.4775526 104.567062 15.430654 104.567062 15.3837555 104.567062 15.3368569 104.567062 15.2899584 104.567062 15.2430598 104.567062 15.1961612 104.567062 15.1492627 104.567062 15.1023641 104.567062 15.0554656 104.567062 15.008567 104.567062 14.9616684 104.567062 14.9147699 104.567062 14.8678713 104.567062 14.8209728 104.567062 14.7740742 104.567062 14.7271757 104.567062 14.6802771 104.567062 14.6333785 104.567062 14.58648"></polyline>
                    <polyline id="Path-103" stroke="#FFFDFD" points="0.986187431 18.3978624 0.986187431 19.6835761 0.986187431 19.8164706 0.986187431 20.1046754 0.986187431 20.3704643 0.986187431 20.5033588 0.986187431 20.924458 0.986187431 21.0573525 0.986187431 21.1902469 0.986187431 21.6113462 0.986187431 21.7442406 0.986187431 21.8771351 0.986187431 22.0100295 0.986187431 22.142924 0.986187431 22.5416073 0.986187431 22.6745018 0.986187431 22.8073962 0.986187431 23.0731851 0.986187431 23.338974 0.986187431 23.4718685 0.986187431 23.6047629 0.986187431 23.7376573 0.986187431 23.8705518 0.986187431 24.0034462 0.986187431 24.1363407 0.986187431 24.2692351"></polyline>
                </g>
                <g id="Terminal-logo" transform="translate(46.000000, 28.000000)">
                    <use id="Rectangle-7" stroke="#241808" mask="url(#mask-8)" stroke-width="2" fill="#2A1D0C" xlink:href="#path-7"></use>
                    <text id="&gt;_" font-family="BalooBhaina-Regular, Baloo Bhaina" font-size="10" font-weight="normal" fill="#FFFFFF">
                        <tspan x="3" y="12">&gt;_</tspan>
                    </text>
                </g>
            </g>
        </g>
    </g>
</svg>