<?xml version="1.0" encoding="UTF-8"?>
<svg width="171px" height="171px" viewBox="0 0 171 171" version="1.1" xmlns="http://www.w3.org/2000/svg" xmlns:xlink="http://www.w3.org/1999/xlink">
    <!-- Generator: Sketch 39.1 (31720) - http://www.bohemiancoding.com/sketch -->
    <title>favicon-big-eyes</title>
    <desc>Created with Sketch.</desc>
    <defs></defs>
    <g id="Page-1" stroke="none" stroke-width="1" fill="none" fill-rule="evenodd">
        <rect id="Rectangle-2" fill="#E7EFF5" x="-1914" y="-406" width="2803" height="838"></rect>
        <g id="Poes-Big-Wyes" transform="translate(-14.000000, 16.000000)">
            <g id="Cat">
                <g id="Body" transform="translate(34.000000, 6.000000)">
                    <path d="M108.674179,33.3090935 C112.524421,38.4343275 115.485962,44.2028816 117.176554,50.3676407 C122.878374,71.1593887 130.660156,196.375 130.660156,196.375 L0.292272225,196.374999 C0.292272225,196.374999 -0.363100857,108.512086 13.0925368,54.8601364 C15.0413064,47.0897658 17.6629397,40.4777357 20.8440062,34.9199435 L19.6052315,35.9663667 L24.6326211,4.53599332 C24.6326211,4.53599332 26.3889368,-1.65576277 32.2693683,0.74180625 C37.2345368,2.76620429 42.7709487,11.2926987 44.3741008,13.8978786 C52.586338,10.6922702 61.7608988,9.8871033 71.3647537,10.9931812 C75.4388302,11.4623935 79.5215663,12.5148516 83.4880926,14.0698307 L95.0464818,2.97441061 C95.0464818,2.97441061 101.679797,-1.45854968 103.613481,5.18096791 C105.547164,11.8204855 109.802757,34.1552099 109.802757,34.1552099 L108.674179,33.3090935 Z" stroke="#241808" stroke-width="2" fill="#C28838"></path>
                    <g id="Fur" transform="translate(11.000000, 14.000000)" stroke="#8D5E1D" stroke-linecap="round" stroke-linejoin="round">
                        <path d="" id="Path-17"></path>
                        <path d="M25.729327,18.4197569 L22.1827081,14.4419253" id="Path-18"></path>
                        <path d="M34.4210013,13.3329924 L30.5702862,8.53206437" id="Path-19"></path>
                        <path d="M42.7924265,9.12199701 C41.6619563,6.92988221 40.5314862,4.73776741 39.401016,2.54565261" id="Path-20"></path>
                        <path d="M53.175241,7.27494599 L51.7200738,0.0236905461" id="Path-21"></path>
                        <path d="M64.210493,10.200731 C64.8075132,3.81412016 63.4706384,6.13435213 66.8413117,2.61026428" id="Path-22"></path>
                        <path d="M79.0676658,15.0065752 C80.081554,13.9636585 81.0954422,12.9207419 82.1093304,11.8778252" id="Path-23"></path>
                        <path d="M84.4402667,19.2681362 C85.5515406,18.784251 86.6628145,18.3003658 87.7740884,17.8164805" id="Path-24"></path>
                        <path d="M68.1082623,17.7729379 L69.8928086,13.3933903" id="Path-25"></path>
                        <path d="M58.5464373,19.6649362 L58.3596253,12.5422018" id="Path-26"></path>
                        <path d="M49.9425506,17.0039185 L48.2745863,13.3119234" id="Path-27"></path>
                        <path d="M41.7165017,23.1932952 L39.6362868,18.8144499" id="Path-28"></path>
                        <path d="M53.5952169,26.5748734 C53.4364969,24.9247007 53.277777,23.274528 53.119057,21.6243553" id="Path-29"></path>
                        <path d="M65.4500539,24.0852172 L66.2569975,20.6664171" id="Path-30"></path>
                        <path d="" id="Path-31"></path>
                        <polyline id="Path-32" points="52.9231151 55.9177019 53.5074293 55.9177019 53.6338434 55.9177019 53.8866717 55.9177019 54.0713768 55.9177019 54.1296678 55.9177019 54.1879587 55.9177019 54.2462497 55.9177019 54.3045407 55.9177019 54.4211226 55.9177019 54.5377045 55.9177019 54.5959955 55.9177019 54.6542865 55.9177019 54.7125774 55.9177019 54.7708684 55.9177019 54.9457413 55.9177019 55.0040322 55.9177019 55.0623232 55.9177019"></polyline>
                        <path d="M51.0009179,60.8970143 L55.0405519,60.7200345" id="Path-33"></path>
                        <path d="M48.5583158,64.8917011 L58.9362143,64.2280269" id="Path-34"></path>
                        <path d="M4.6701361,85.9635334 L0.577829516,85.7275603" id="Path-35"></path>
                        <polyline id="Path-36" points="33.1695013 81.9351362 32.5233846 81.9351362 32.2291206 81.9351362 31.8077401 81.9351362 31.601966 81.9351362 31.3961919 81.9351362 31.1904178 81.9351362 30.9846436 81.9351362 30.6903796 81.9351362 30.357489 81.9351362 30.1517149 81.9351362 29.897482 81.9351362 29.7703656 81.9351362 29.5161327 81.9351362 29.3890163 81.9351362 29.330023 81.9351362 29.2710298 81.9351362 29.1439133 81.9351362 29.08492 81.9351362 29.0259268 81.9351362 28.9669335 81.9351362 28.9079403 81.9351362"></polyline>
                        <path d="M37.6628216,91.5313739 L32.0458201,92.1388641" id="Path-37"></path>
                        <path d="M27.5651412,102.525892 L21.790122,101.765301" id="Path-38"></path>
                        <path d="M12.1152266,101.229445 C10.2869036,100.43842 8.45858055,99.6473957 6.63025755,98.8563709" id="Path-39"></path>
                        <path d="M10.7099227,109.99135 L5.1315477,112.002739" id="Path-40"></path>
                        <path d="M24.0332706,111.881943 L19.7379991,114.364577" id="Path-41"></path>
                        <path d="M36.0847518,115.390638 L31.8267023,118.845255" id="Path-42"></path>
                        <path d="M46.6642106,118.777132 L44.5130633,120.710566" id="Path-43"></path>
                        <polyline id="Path-44" points="54.1718058 117.684352 54.1718058 118.268666 54.1718058 118.395081 54.1718058 118.600152 54.1718058 118.726567 54.1718058 118.852981 54.1718058 118.979395 54.1718058 119.037686 54.1718058 119.1641 54.1718058 119.222391 54.1718058 119.407096 54.1718058 119.465387 54.1718058 119.523678 54.1718058 119.64026 54.1718058 119.698551 54.1718058 119.756842 54.1718058 119.815133 54.1718058 119.873424 54.1718058 119.931715 54.1718058 119.990006 54.1718058 120.048297 54.1718058 120.164879 54.1718058 120.22317 54.1718058 120.28146 54.1718058 120.339751 54.1718058 120.398042 54.1718058 120.456333 54.1718058 120.572915 54.1718058 120.631206 54.1718058 120.747788 54.1718058 120.806079 54.1718058 120.86437 54.1718058 120.922661 54.1718058 120.980952 54.1718058 121.039243 54.1718058 121.097534 54.1718058 121.223948 54.1718058 121.282239 54.1718058 121.34053 54.1718058 121.398821 54.1718058 121.457112 54.1718058 121.573694 54.1718058 121.631985 54.1718058 121.690276 54.1718058 121.806858 54.1718058 121.92344 54.1718058 121.981731 54.1718058 122.040022 54.1718058 122.098313 54.1718058 122.156604 54.1718058 122.214895 54.1718058 122.273185 54.1718058 122.389767 54.1718058 122.448058 54.1718058 122.506349 54.1718058 122.56464 54.1718058 122.622931 54.1718058 122.681222 54.1718058 122.739513"></polyline>
                        <path d="M61.3830301,117.855011 C61.9270791,118.96254 62.4711281,120.070068 63.0151771,121.177596" id="Path-45"></path>
                        <path d="M72.3262807,115.242452 L75.3637315,119.840416" id="Path-46"></path>
                        <path d="M84.0757726,112.583542 C85.3342956,113.863368 86.5928186,115.143194 87.8513415,116.42302" id="Path-47"></path>
                        <path d="" id="Path-48"></path>
                        <path d="M92.0384587,109.778552 C93.9438007,111.292479 95.8491427,112.806405 97.7544847,114.320332" id="Path-49"></path>
                        <path d="M103.994427,103.052618 L109.519427,106.735483" id="Path-50"></path>
                        <path d="M92.6319029,87.7150715 L97.1329485,88.4925185" id="Path-51"></path>
                        <path d="M79.6386363,97.9595328 C81.2003191,98.1149754 82.762002,98.270418 84.3236848,98.4258606" id="Path-52"></path>
                        <path d="M71.091636,82.8024776 C72.2541778,83.3160936 73.4167197,83.8297096 74.5792616,84.3433255" id="Path-53"></path>
                        <path d="M65.2344476,88.7376214 L67.4066638,90.9189676" id="Path-54"></path>
                        <path d="M46.3288779,38.1331342 C45.0980733,35.9601061 43.8672688,33.7870781 42.6364643,31.6140501" id="Path-55"></path>
                        <polyline id="Path-56" points="54.5994573 36.2349028 54.5994573 34.8209005 54.5994573 34.579453 54.5994573 34.1886014 54.5994573 33.4642587 54.5994573 33.3522057 54.5994573 33.2401527 54.5994573 32.9987051 54.5994573 32.7572576 54.5994573 32.51581 54.5994573 32.403757 54.5994573 32.291704 54.5994573 32.179651 54.5994573 32.067598 54.5994573 31.955545 54.5994573 31.8434919 54.5994573 31.7314389 54.5994573 31.6193859 54.5994573 31.5073329 54.5994573 31.3952799"></polyline>
                        <path d="M60.9704713,36.8351868 L67.5909367,32.3517324" id="Path-57"></path>
                        <path d="M60.7303577,47.6322948 C62.1376902,46.811462 63.5450226,45.9906293 64.9523551,45.1697965" id="Path-58"></path>
                        <polyline id="Path-59" points="53.6176594 49.2597314 53.6176594 47.8443952 53.6176594 47.2854641 53.6176594 46.8946125 53.6176594 46.3356814 53.6176594 45.1444512 53.6176594 44.7535996 53.6176594 43.8798529 53.6176594 43.6384053 53.6176594 43.0434572 53.6176594 42.9314042 53.6176594 42.8193512 53.6176594 42.5952452 53.6176594 42.4831922"></polyline>
                        <path d="M49.4076677,47.8283876 L45.5978654,43.4583201" id="Path-60"></path>
                        <path d="M35.97598,29.9359228 L29.9891477,24.4159781" id="Path-61"></path>
                        <path d="M72.5412787,29.5384014 C73.7627454,28.055033 74.9842122,26.5716646 76.2056789,25.0882961" id="Path-62"></path>
                        <path d="M14.9833819,26.9451746 C13.3595026,26.130567 11.7356232,25.3159594 10.1117439,24.5013518" id="Path-63"></path>
                        <path d="M23.0752101,25.3857702 L18.7945183,22.2509538" id="Path-64"></path>
                    </g>
                </g>
                <g id="Face">
                    <path d="M88.2505545,131.027623 C88.2505545,131.027623 100.180114,137.891076 109.414596,131.197184" id="Mouth" stroke="#241808" stroke-width="2" stroke-linecap="round"></path>
                    <g id="Eyes" transform="translate(42.000000, 47.000000)" stroke="#241808">
                        <circle id="Oval" stroke-width="2" fill="#FFFFFF" cx="22" cy="25" r="22"></circle>
                        <circle id="Oval" stroke-width="2" fill="#FFFFFF" cx="93" cy="22.972377" r="22"></circle>
                        <path d="M93,33 C98.5228475,33 103,28.5228475 103,23 C103,17.4771525 98.5228475,13 93,13 C87.4771525,13 83,17.4771525 83,23 C83,28.5228475 87.4771525,33 93,33 Z" id="Oval-2" fill="#241808"></path>
                        <path d="M21.5,34 C26.1944204,34 30,30.1944204 30,25.5 C30,20.8055796 26.1944204,17 21.5,17 C16.8055796,17 13,20.8055796 13,25.5 C13,30.1944204 16.8055796,34 21.5,34 Z" id="Oval-2" fill="#241808"></path>
                    </g>
                    <g id="Nose" transform="translate(82.000000, 88.000000)">
                        <path d="M4.45885972,4.05779032 C0.851489687,-0.632108303 27.1247751,-0.243056215 30.6559407,2.23009408 C34.1871063,4.70324438 29.566444,10.0122079 17.6350002,15.9270615 C11.1153906,11.3608707 8.06622974,8.74768894 4.45885972,4.05779032 Z" id="Path-12" fill="#F0A08E"></path>
                        <path d="M0.537612056,31.2762289 C0.537612056,31.2762289 17.59719,30.2455097 17.59719,14.3766542" id="Path-2" stroke="#241808" stroke-width="2" stroke-linecap="round" stroke-linejoin="round"></path>
                        <path d="M33.9634203,31.9844606 C33.9634203,31.9844606 17.7919227,32.6133103 17.7919227,14.9645734" id="Path-3" stroke="#241808" stroke-width="2" stroke-linecap="round" stroke-linejoin="round"></path>
                    </g>
                    <g id="Whiskers" transform="translate(0.000000, 97.000000)" stroke="#241808" stroke-linecap="round">
                        <path d="M62.6537896,7.39964186 C62.6537896,7.39964186 42.6595785,-3.10352132 4.65072837,2.14806027" id="Path-4"></path>
                        <path d="M68.9968666,17.4463615 C68.9968666,17.4463615 55.55783,9.49829041 10.6440307,16.8286743" id="Path-5"></path>
                        <path d="M134.346437,7.2173125 C134.346437,7.2173125 155.155547,-1.65408217 193.629524,1.12354294" id="Path-6"></path>
                        <path d="M128.050492,17.0953464 C128.050492,17.0953464 144.432844,10.6133518 189.371452,16.4999853" id="Path-7"></path>
                        <path d="M143.635311,9.42262947 C143.635311,9.42262947 178.682241,1.65936839 198.86002,9.83566128" id="Path-8"></path>
                        <path d="M52.640559,8.06694249 C52.640559,8.06694249 24.6052494,2.05999643 0.702739665,12.8930889" id="Path-9"></path>
                    </g>
                    <g id="Ears" transform="translate(53.000000, 0.000000)">
                        <path d="M8.8780118,31.2726475 L10.8953064,17.5945549 C10.8953064,17.5945549 12.0027723,15.4698974 13.7702402,16.703002 C15.5377082,17.9361066 20.0454179,22.327407 20.0454179,22.327407 L8.8780118,31.2726475 Z" id="Path-13" fill="#F0A08E"></path>
                        <path d="M72.1599376,22.0297508 L77.2480268,16.0815628 C77.2480268,16.0815628 80.1581466,14.121639 80.3673069,17.5554595 C80.5764673,20.98928 81.9695413,29.2383358 81.9695413,29.2383358 L72.1599376,22.0297508 Z" id="Path-14" fill="#F0A08E"></path>
                        <path d="M0.783541341,42.787721 C0.783541341,42.787721 10.3241841,25.7569268 26.0935203,19.8303835" id="Path-15" stroke="#241808" stroke-width="2"></path>
                        <path d="M88.9736418,38.4604504 C88.9736418,38.4604504 82.0779375,24.9813442 64.5747179,20.1482443" id="Path-16" stroke="#241808" stroke-width="2"></path>
                        <path d="M9.60807081,6.18419688 C8.05084188,6.50362914 5.07928798,11.0609249 5.07928798,11.0609249 L6.51116089,0.659254483 L16.888946,8.54967349 C16.888946,8.54967349 11.7470271,5.74543567 9.60807081,6.18419688 Z" id="Path-107" stroke="#241808" stroke-linejoin="round" fill="#241808"></path>
                        <path d="M81.3919672,7.23783187 C79.7831467,6.92889135 75.7560336,8.55802134 75.7560336,8.55802134 L82.8757409,2.58890132 L85.1871001,11.4824016 C85.1871001,11.4824016 83.1235377,7.57034396 81.3919672,7.23783187 Z" id="Path-108" stroke="#241808" stroke-linejoin="round" fill="#241808"></path>
                    </g>
                </g>
            </g>
            <g id="Sweater" transform="translate(34.000000, 135.000000)" stroke-width="2">
                <path d="M0.484652061,65.8913384 L2.49271156,0.684489652 C2.49271156,0.684489652 53.8418936,27.7319522 125.514469,0.684489652 C126.637098,0.260837098 126.965823,8.75764212 126.965823,8.75764212 L131.049088,66.8944796 L0.484652061,65.8913384 Z" id="Path-67" stroke="#241808" stroke-linecap="round" stroke-linejoin="round" fill="#912F40"></path>
                <path d="M2,10 C2,10 55.2646948,35.7918277 126.425034,8.60296585" id="Path-66" stroke="#241808"></path>
                <g id="Fibers-light" opacity="0.25928442" transform="translate(7.000000, 19.000000)" stroke="#FFFEFE" stroke-linecap="round" stroke-linejoin="round">
                    <path d="M113.346584,3.56866863 L113.065192,0.51188759" id="Path-100"></path>
                </g>
            </g>
        </g>
    </g>
</svg>