<?xml version="1.0" encoding="UTF-8"?>
<svg width="20px" height="30px" viewBox="0 0 20 30" version="1.1" xmlns="http://www.w3.org/2000/svg" xmlns:xlink="http://www.w3.org/1999/xlink">
    <!-- Generator: Sketch 39.1 (31720) - http://www.bohemiancoding.com/sketch -->
    <title>Fill 51</title>
    <desc>Created with Sketch.</desc>
    <defs></defs>
    <g id="Page-1" stroke="none" stroke-width="1" fill="none" fill-rule="evenodd">
        <path d="M9.78189471,15.3719073 C6.69521924,15.3719073 4.19230033,12.8696156 4.19230033,9.78189471 C4.19230033,6.69480108 6.69521924,4.19230033 9.78189471,4.19230033 C12.8691974,4.19230033 15.3721163,6.69480108 15.3721163,9.78189471 C15.3721163,12.8696156 12.8691974,15.3719073 9.78189471,15.3719073 L9.78189471,15.3719073 Z M9.78189471,0 C4.37984675,0 0,4.37942859 0,9.78189471 C0,12.2478061 0.914314963,14.4989905 2.4201225,16.219316 L2.41677719,16.2226613 L9.7762495,29.6306627 L17.1267313,16.2393879 C18.6425747,14.5165534 19.5644167,12.2574239 19.5644167,9.78189471 C19.5644167,4.37942859 15.1845699,0 9.78189471,0 L9.78189471,0 Z" id="Fill-51" fill="#66B7F9"></path>
    </g>
</svg>