<?xml version="1.0" encoding="UTF-8"?>
<svg width="199px" height="204px" viewBox="0 0 199 204" version="1.1" xmlns="http://www.w3.org/2000/svg" xmlns:xlink="http://www.w3.org/1999/xlink">
    <!-- Generator: Sketch 39.1 (31720) - http://www.bohemiancoding.com/sketch -->
    <title>me</title>
    <desc>Created with Sketch.</desc>
    <defs></defs>
    <g id="Page-1" stroke="none" stroke-width="1" fill="none" fill-rule="evenodd">
        <rect id="Rectangle-2" fill="#E7EFF5" x="-2123" y="-421" width="2803" height="838"></rect>
        <g id="Me" transform="translate(-422.000000, -417.000000)">
            <g>
                <g id="Body" stroke-width="2" stroke="#241808" fill="#FCE4DB">
                    <path d="M457.292272,620.374999 C457.292272,620.374999 456.636899,532.512086 470.092537,478.860136 C479.02366,443.248877 502.087259,431.966797 528.364754,434.993181 C548.315908,437.29096 568.474733,453.575893 574.176554,474.367641 C579.878374,495.159389 587.660156,620.375 587.660156,620.375 L457.292272,620.374999 Z"></path>
                </g>
                <g id="Face" transform="translate(455.000000, 427.000000)">
                    <g id="Sweater" transform="translate(2.000000, 126.000000)">
                        <path d="M0.484652061,65.8913384 L2.49271156,0.684489652 C2.49271156,0.684489652 53.8418936,27.7319522 125.514469,0.684489652 C126.637098,0.260837098 126.965823,8.75764212 126.965823,8.75764212 L131.049088,66.8944796 L0.484652061,65.8913384 Z" id="Path-67" stroke="#241808" stroke-width="2" stroke-linecap="round" stroke-linejoin="round" fill="#000000"></path>
                        <path d="M2,10 C2,10 55.2646948,35.7918277 126.425034,8.60296585" id="Path-66" stroke="#241808" stroke-width="2"></path>
                        <g id="Fibers-dark" opacity="0.46020154" transform="translate(9.000000, 20.000000)" stroke-width="2" stroke-linecap="round">
                            <path d="M0.471133401,0.702775986 L0.377336284,3.38995172" id="Path-65" stroke="#241808" stroke-linejoin="round"></path>
                            <path d="M6.65169343,5.6399659 L6.74828213,8.05579998" id="Path-68" stroke="#241808" stroke-linejoin="round"></path>
                            <polyline id="Path-69" stroke="#241808" stroke-linejoin="round" points="3.23591509 31.4682303 3.23591509 31.0388852 3.23591509 30.9919867"></polyline>
                            <path d="M12.390067,42.4408181 L12.2493714,39.8474395" id="Path-70" stroke="#241808" stroke-linejoin="round"></path>
                            <path d="M16.5629221,18.6409163 L16.7946233,16.037488" id="Path-71" stroke="#241808" stroke-linejoin="round"></path>
                            <path d="M21.1600975,32.5401974 L21.0663004,31.1594815" id="Path-72" stroke="#241808" stroke-linejoin="round"></path>
                            <path d="M32.7111008,28.1842146 L32.1505513,25.8230955" id="Path-73" stroke="#241808" stroke-linejoin="round"></path>
                            <polyline id="Path-74" stroke="#241808" stroke-linejoin="round" points="30.9116478 11.9746212 30.9116478 11.515127 30.9116478 11.4682284 30.9116478 11.3671732 30.9116478 11.3202746 30.9116478 11.2192194 30.9116478 11.1723209 30.9116478 11.0712656 30.9116478 10.9702104 30.9116478 10.8764133 30.9116478 10.7753581 30.9116478 10.5732476 30.9116478 10.526349 30.9116478 10.3783953 30.9116478 10.3314967 30.9116478 10.2845981 30.9116478 10.2376996 30.9116478 10.190801 30.9116478 10.1439025 30.9116478 10.0970039 30.9116478 10.0032068 30.9116478 9.95630823 30.9116478 9.86251111 30.9116478 9.81561255 30.9116478 9.76871399 30.9116478 9.72181543 30.9116478 9.67491688 30.9116478 9.62801832 30.9116478 9.58111976 30.9116478 9.5342212 30.9116478 9.48732264 30.9116478 9.44042408 30.9116478 9.39352553 30.9116478 9.34662697 30.9116478 9.39296721"></polyline>
                            <path d="M46.3786807,11.1293305 C46.3161493,10.6274043 46.2536179,10.125478 46.1910864,9.62355179" id="Path-75" stroke="#241808" stroke-linejoin="round"></path>
                            <path d="M62.5832493,10.1109618 L62.6759297,9.59507766" id="Path-76" stroke="#241808" stroke-linejoin="round"></path>
                            <path d="M77.3501537,14.1006892 L77.3032551,11.7920518" id="Path-77" stroke="#241808" stroke-linejoin="round"></path>
                            <path d="M85.5216692,25.9621163 L85.4278721,23.3966534" id="Path-78" stroke="#241808" stroke-linejoin="round"></path>
                            <path d="M79.1563065,39.9579861 L78.8280166,37.8436427" id="Path-79" stroke="#241808" stroke-linejoin="round"></path>
                            <path d="M94.6713546,39.8373898 L94.4290454,36.9776943" id="Path-80" stroke="#241808" stroke-linejoin="round"></path>
                            <path d="M99.5817454,21.2666772 C99.1416061,20.7109666 98.7014669,20.1552559 98.2613276,19.5995452" id="Path-81" stroke="#241808" stroke-linejoin="round"></path>
                            <path d="M93.8098728,11.9695963 L93.2867305,8.8921576" id="Path-82" stroke="#241808" stroke-linejoin="round"></path>
                            <path d="M106.915228,9.60512735 L106.127444,6.41211716" id="Path-83" stroke="#241808" stroke-linejoin="round"></path>
                            <path d="M112.682634,21.5609099 L111.301918,18.9881889" id="Path-84" stroke="#241808" stroke-linejoin="round"></path>
                            <path d="M112.155584,36.8660311 L111.089758,34.5311529" id="Path-85" stroke="#241808" stroke-linejoin="round"></path>
                            <path d="M105.333519,41.0489359 C105.035192,40.083235 104.736865,39.1175341 104.438538,38.1518332" id="Path-86" stroke="#241808" stroke-linejoin="round"></path>
                            <path d="" id="Path-87" stroke="#979797" stroke-linejoin="round"></path>
                            <path d="M37.0772584,36.9221381 L39.0706751,41.8616486" id="Path-104" stroke="#241808"></path>
                            <path d="M70.148762,41.2147889 L72.0092843,36.6195231" id="Path-105" stroke="#241808"></path>
                            <polyline id="Path-106" stroke="#241808" points="55.706498 41.8168167 55.706498 43.1457612 55.706498 43.2786556 55.706498 43.4115501 55.706498 43.5444445"></polyline>
                        </g>
                        <g id="Fibers-light" opacity="0.25928442" transform="translate(7.000000, 19.000000)" stroke-width="2" stroke-linecap="round">
                            <path d="M20.5611357,9.32323342 C20.4973016,8.48873685 20.4334674,7.65424028 20.3696333,6.81974371" id="Path-88" stroke="#FFFEFE" stroke-linejoin="round"></path>
                            <path d="M10.7783197,18.1965524 L10.1613804,15.9510047" id="Path-89" stroke="#FFFEFE" stroke-linejoin="round"></path>
                            <path d="M12.1467527,30.3901776 L11.8581032,27.1240279" id="Path-90" stroke="#FFFEFE" stroke-linejoin="round"></path>
                            <path d="M3.74130269,41.392356 L3.41301278,39.3321694" id="Path-91" stroke="#FFFEFE" stroke-linejoin="round"></path>
                            <path d="M30.39755,43.1326276 L29.952572,40.8340399" id="Path-92" stroke="#FFFEFE" stroke-linejoin="round"></path>
                            <path d="M28.2770652,22.1086738 C28.1343224,21.2090403 27.9915795,20.3094069 27.8488367,19.4097734" id="Path-93" stroke="#FFFEFE" stroke-linejoin="round"></path>
                            <polyline id="Path-94" stroke="#FFFEFE" stroke-linejoin="round" points="39.5706847 19.8625678 39.5706847 19.3170929 39.5706847 19.1535063 39.5706847 18.826333 39.5706847 18.6627464 39.5706847 18.5616911 39.5706847 18.4606359 39.5706847 18.4137373 39.5706847 18.2657836 39.5706847 18.1647283 39.5706847 18.0709312 39.5706847 17.9771341 39.5706847 17.9302355 39.5706847 17.883337 39.5706847 17.8364384 39.5706847 17.7895399 39.5706847 17.7426413 39.5706847 17.6957427 39.5706847 17.6488442 39.5706847 17.6019456 39.5706847 17.6482859 39.5706847 17.6946261 39.5706847 17.7409664"></polyline>
                            <path d="M78.7695049,28.1814788 L78.3250852,25.2497606" id="Path-95" stroke="#FFFEFE" stroke-linejoin="round"></path>
                            <polyline id="Path-96" stroke="#FFFEFE" stroke-linejoin="round" points="89.5399822 36.8208632 89.5399822 35.7232136 89.5399822 35.6221584 89.5399822 35.4585718 89.5399822 35.3575165 89.5399822 35.1939299 89.5399822 35.1470313 89.5399822 34.9834447 89.5399822 34.8354909 89.5399822 34.6719043 89.5399822 34.6250057 89.5399822 34.5781072 89.5399822 34.4770519 89.5399822 34.4301534 89.5399822 34.2821996 89.5399822 34.235301 89.5399822 34.1884025 89.5399822 34.1415039 89.5399822 34.0946054 89.5399822 34.0477068 89.5399822 34.2107351"></polyline>
                            <path d="M100.08155,33.0790282 L99.6605794,29.5594031" id="Path-97" stroke="#FFFEFE" stroke-linejoin="round"></path>
                            <path d="M108.059888,29.1490407 L107.895743,26.483081" id="Path-98" stroke="#FFFEFE" stroke-linejoin="round"></path>
                            <path d="M93.0690987,21.1455784 L92.9211449,17.8537462" id="Path-99" stroke="#FFFEFE" stroke-linejoin="round"></path>
                            <path d="M113.346584,3.56866863 L113.065192,0.51188759" id="Path-100" stroke="#FFFEFE" stroke-linejoin="round"></path>
                            <polyline id="Path-101" stroke="#FFFEFE" stroke-linejoin="round" points="104.567062 17.0397212 104.567062 16.603118 104.567062 16.5562194 104.567062 16.5093209 104.567062 16.4624223 104.567062 16.4155238 104.567062 16.3686252 104.567062 16.3217266 104.567062 16.2279295 104.567062 16.181031 104.567062 16.1341324 104.567062 16.0872339 104.567062 16.0403353 104.567062 15.9934367 104.567062 15.9465382 104.567062 15.8996396 104.567062 15.8527411 104.567062 15.8058425 104.567062 15.7589439 104.567062 15.7120454 104.567062 15.6651468 104.567062 15.6182483 104.567062 15.5244511 104.567062 15.4775526 104.567062 15.430654 104.567062 15.3837555 104.567062 15.3368569 104.567062 15.2899584 104.567062 15.2430598 104.567062 15.1961612 104.567062 15.1492627 104.567062 15.1023641 104.567062 15.0554656 104.567062 15.008567 104.567062 14.9616684 104.567062 14.9147699 104.567062 14.8678713 104.567062 14.8209728 104.567062 14.7740742 104.567062 14.7271757 104.567062 14.6802771 104.567062 14.6333785 104.567062 14.58648"></polyline>
                            <path d="M115.779726,45.1626652 L115.584873,41.5632008" id="Path-102" stroke="#FFFEFE" stroke-linejoin="round"></path>
                            <polyline id="Path-103" stroke="#FFFDFD" points="0.986187431 18.3978624 0.986187431 19.6835761 0.986187431 19.8164706 0.986187431 20.1046754 0.986187431 20.3704643 0.986187431 20.5033588 0.986187431 20.924458 0.986187431 21.0573525 0.986187431 21.1902469 0.986187431 21.6113462 0.986187431 21.7442406 0.986187431 21.8771351 0.986187431 22.0100295 0.986187431 22.142924 0.986187431 22.5416073 0.986187431 22.6745018 0.986187431 22.8073962 0.986187431 23.0731851 0.986187431 23.338974 0.986187431 23.4718685 0.986187431 23.6047629 0.986187431 23.7376573 0.986187431 23.8705518 0.986187431 24.0034462 0.986187431 24.1363407 0.986187431 24.2692351"></polyline>
                        </g>
                        <g id="madewithlove" transform="translate(46.000000, 29.000000)">
                            <polygon id="Shape" stroke="#241808" fill="#CD1B38" points="11.3695696 0.2625 0 11.65325 22.7397215 34.433 45.4788608 11.65325 34.1087089 0.2625 22.7397215 11.65325"></polygon>
                            <polygon id="Shape" fill="#8F1329" points="22.757082 12.2628047 33.7124987 22.7968784 44.6679154 11.781693"></polygon>
                        </g>
                    </g>
                    <g id="Eyes" transform="translate(10.000000, 38.000000)" stroke="#241808">
                        <circle id="Oval" stroke-width="2" fill="#FFFFFF" cx="22" cy="25" r="22"></circle>
                        <circle id="Oval" stroke-width="2" fill="#FFFFFF" cx="93" cy="22.972377" r="22"></circle>
                        <path d="M92.5,29 C94.9852814,29 97,26.9852814 97,24.5 C97,22.0147186 94.9852814,20 92.5,20 C90.0147186,20 88,22.0147186 88,24.5 C88,26.9852814 90.0147186,29 92.5,29 Z" id="Oval-2" fill="#241808"></path>
                        <path d="M22.5,30 C24.9852814,30 27,27.9852814 27,25.5 C27,23.0147186 24.9852814,21 22.5,21 C20.0147186,21 18,23.0147186 18,25.5 C18,27.9852814 20.0147186,30 22.5,30 Z" id="Oval-2" fill="#241808"></path>
                    </g>
                    <g id="Nose" transform="translate(50.000000, 85.000000)" fill="#241808">
                        <path d="M4.33923639,3.62747124 C0.73186636,-1.06242739 27.0051518,-0.6733753 30.5363174,1.799775 C34.067483,4.27292529 29.4468207,9.58188879 17.5153768,15.4967424 C10.9957672,10.9305517 7.94660642,8.31736986 4.33923639,3.62747124 Z" id="Path-12"></path>
                    </g>
                    <path d="M40.1042044,115.962188 C49.8633139,117.584048 59.2351969,117.750727 67.445162,117.584048 C86.8099395,117.190904 104.110851,112.709605 104.110851,112.709605 C104.110851,112.709605 125.60673,107.115944 125.60674,97.6484793 C125.606747,91.9218337 135.123355,110.216825 138.448313,122.987151 C138.813032,124.387946 131.900936,121.152564 132.290598,122.504931 C134.221438,129.206131 130.657087,137.972378 127.992996,141.653367 C125.328906,145.334356 119.539955,146.791798 114.2055,147.493211 C108.871044,148.194623 101.023612,147.157822 96.345957,147.493211 C91.3519168,147.851284 86.7401907,143.512547 84.9281027,143.512547 C78.1314855,143.512547 88.0943087,147.929631 81.4108221,148.085625 C71.4053891,148.319155 64.5581162,143.173161 56.563534,143.512547 C50.9480336,143.750937 66.0146865,150.822992 56.563534,149.957509 C47.1123814,149.092026 41.5031582,146.447351 38.1786234,146.791798 C28.8590895,147.757374 32.1166994,146.791798 25.5384834,146.791798 C18.9602674,146.791798 17.1822216,142.424079 7.94581053,136.481953 C5.56231847,134.948564 1.28448621,122.700613 5.75985444,114.569035 C6.86597694,112.559252 -0.484909038,117.966618 0.297686027,115.962188 C3.881587,106.782879 7.94581058,92.906739 7.94581058,92.906739 C18.336587,100.236152 11.2022898,111.158996 40.1042044,115.962188 Z" id="Path-111" stroke="#241808" stroke-width="2" fill="#9A8056"></path>
                    <path d="M56,126 C56,126 67.9295596,132.863453 77.1640415,126.169561" id="Mouth" stroke="#241808" stroke-width="2" stroke-linecap="round"></path>
                    <path d="M23.2268005,31.232058 C23.2268005,31.232058 35.4031375,13.5124632 74.3572244,9.80306471" id="Path-113" stroke="#979797"></path>
                    <path d="M29.3203989,14.3874956 C46.6960485,3.33630998 26.4330723,23.6061101 26.4330723,23.6061101 C26.4330723,23.6061101 50.5657717,0.687797124 60.0959191,0.687797124 C69.6260666,0.687797124 56.2346894,7.13854988 56.2346894,7.13854988 C56.2346894,7.13854988 80.9562353,-0.382369535 100.349881,5.81796699 C119.743528,12.0183035 93.2517751,7.97340828 93.2517751,7.97340828 C93.2517751,7.97340828 90.8801689,5.46995066 106.578672,13.7678056 C122.277175,22.0656606 125.700354,29.9316627 128.056096,35.1787029 C132.791924,45.7270038 112.428052,27.9946533 113.09448,31.2488742 C113.760907,34.5030952 126.951922,49.8915859 121.451764,47.0787197 C115.951607,44.2658534 97.625212,32.4989009 92.5435537,36.7018085 C87.4618953,40.9047161 110.088817,41.1040051 102.906171,42.8673626 C99.0362939,43.8174271 86.9927603,44.0011473 77.0529722,40.2434421 C68.5441194,37.0266975 67.3539203,36.4169296 66.8388227,37.7938266 C65.7220034,40.7791737 68.8420193,38.187705 70.8907216,42.8673626 C72.939424,47.5470201 81.7365946,49.5112194 69.2798416,49.5112194 C56.8230887,49.5112194 32.6637185,30.8744218 27.4486841,40.2434421 C22.2336496,49.6124625 16.2596349,46.2313877 16.2596349,46.2313877 C16.2596349,46.2313877 11.9447494,25.4386812 29.3203989,14.3874956 Z" id="Path-112" stroke="#241808" stroke-width="2" fill="#9A8056"></path>
                    <path d="M37.3959929,30.0063974 C37.3959929,30.0063974 43.5783247,15.7908954 78.288909,13.9539481" id="Path-114" stroke="#000000" opacity="0.2"></path>
                    <path d="M59.2479472,31.5330704 C59.2479472,31.5330704 73.514393,18.458443 100.213415,22.5520962" id="Path-115" stroke="#000000" opacity="0.2"></path>
                    <path d="M50.2206634,14.1314682 C50.2206634,14.1314682 69.1751793,4.40302865 84.3276802,7.44899362" id="Path-116" stroke="#000000" opacity="0.2"></path>
                    <path d="M83.1298053,32.2724802 C83.1298053,32.2724802 93.2160347,22.8500212 109.79487,32.4006034" id="Path-117" stroke="#000000" opacity="0.2"></path>
                </g>
            </g>
        </g>
    </g>
</svg>