<?xml version="1.0" encoding="UTF-8"?>
<svg width="19px" height="34px" viewBox="0 0 19 34" version="1.1" xmlns="http://www.w3.org/2000/svg" xmlns:xlink="http://www.w3.org/1999/xlink">
    <!-- Generator: Sketch 39.1 (31720) - http://www.bohemiancoding.com/sketch -->
    <title>Microphone</title>
    <desc>Created with Sketch.</desc>
    <defs></defs>
    <g id="Page-1" stroke="none" stroke-width="1" fill="none" fill-rule="evenodd">
        <g id="Microphone" fill="#F6F6F6">
            <path d="M15.0552387,33.9375283 L3.49414909,33.9375283 C3.25974087,33.9375283 3.06954624,33.751437 3.06954624,33.5217131 C3.06954624,33.2923621 3.25974087,33.1062708 3.49414909,33.1062708 L15.0552387,33.1062708 C15.290028,33.1062708 15.4802227,33.2923621 15.4802227,33.5217131 C15.4802227,33.751437 15.290028,33.9375283 15.0552387,33.9375283" id="Fill-110"></path>
            <path d="M9.63300951,33.0509801 C9.39860129,33.0509801 9.20840665,32.8648888 9.20840665,32.6351649 L9.20840665,25.3705183 C9.20840665,25.1407944 9.39860129,24.9547031 9.63300951,24.9547031 C9.86741773,24.9547031 10.0576124,25.1407944 10.0576124,25.3705183 L10.0576124,32.6351649 C10.0576124,32.8648888 9.86741773,33.0509801 9.63300951,33.0509801" id="Fill-111"></path>
            <path d="M9.4290437,25.473025 L9.31317362,25.473025 C6.82577844,25.473025 4.48703238,24.5250409 2.72801786,22.803976 C0.968622185,21.0829111 0.000116032611,18.794622 0.000116032611,16.360518 C0.000116032611,16.1311669 0.190310669,15.9450756 0.424718887,15.9450756 C0.659508258,15.9450756 0.849321742,16.1311669 0.849321742,16.360518 C0.849321742,18.5727296 1.72978188,20.6521787 3.32833159,22.2162407 C4.92726244,23.7803027 7.05256363,24.6417675 9.31317362,24.6417675 L9.4290437,24.6417675 C11.6896537,24.6417675 13.815336,23.7803027 15.4138857,22.2162407 C17.0124354,20.6521787 17.8928956,18.5727296 17.8928956,16.360518 C17.8928956,16.1311669 18.0830902,15.9450756 18.3174984,15.9450756 C18.5519066,15.9450756 18.7421013,16.1311669 18.7421013,16.360518 C18.7421013,18.794622 17.7735951,21.0829111 16.0145806,22.803976 C14.2555661,24.5250409 11.9164389,25.473025 9.4290437,25.473025" id="Fill-112"></path>
            <path d="M4.35800428,16.4896809 C4.40107441,19.3116306 6.76116496,21.5943258 9.65524887,21.5943258 L9.77111895,21.5943258 C12.665584,21.5943258 15.0252934,19.3116306 15.0683635,16.4896809 L11.9779866,16.4896809 L11.9779866,14.3315439 L15.0691258,14.3315439 L15.0691258,13.8273446 L11.9779866,13.8273446 L11.9779866,11.6692076 L15.0691258,11.6692076 L15.0691258,11.1650083 L11.9779866,11.1650083 L11.9779866,9.00687124 L15.0691258,9.00687124 L15.0691258,8.50267195 L11.9779866,8.50267195 L11.9779866,6.34453492 L15.0664578,6.34453492 C14.9742191,3.56509906 12.6339484,1.33125755 9.77111895,1.33125755 L9.65524887,1.33125755 C6.79241939,1.33125755 4.45252987,3.56509906 4.36029119,6.34453492 L7.44838125,6.34453492 L7.44838125,8.50267195 L4.35724198,8.50267195 L4.35724198,9.00687124 L7.44838125,9.00687124 L7.44838125,11.1650083 L4.35724198,11.1650083 L4.35724198,11.6692076 L7.44838125,11.6692076 L7.44838125,13.8273446 L4.35724198,13.8273446 L4.35724198,14.3315439 L7.44838125,14.3315439 L7.44838125,16.4896809 L4.35800428,16.4896809 L4.35800428,16.4896809 Z M9.77111895,22.4255833 L9.65524887,22.4255833 C6.26566791,22.4255833 3.50803627,19.7274459 3.50803627,16.4106201 L3.50803627,15.6584234 L6.59917554,15.6584234 L6.59917554,15.1628014 L3.50803627,15.1628014 L3.50803627,12.996087 L6.59917554,12.996087 L6.59917554,12.5004651 L3.50803627,12.5004651 L3.50803627,10.3337507 L6.59917554,10.3337507 L6.59917554,9.83812879 L3.50803627,9.83812879 L3.50803627,7.6714144 L6.59917554,7.6714144 L6.59917554,7.17579247 L3.50803627,7.17579247 L3.50803627,6.51496323 C3.50803627,3.19813745 6.26566791,0.5 9.65524887,0.5 L9.77111895,0.5 C13.1606999,0.5 15.9187127,3.19813745 15.9187127,6.51496323 L15.9187127,7.17579247 L12.8275734,7.17579247 L12.8275734,7.6714144 L15.9187127,7.6714144 L15.9187127,9.83812879 L12.8275734,9.83812879 L12.8275734,10.3337507 L15.9187127,10.3337507 L15.9187127,12.5004651 L12.8275734,12.5004651 L12.8275734,12.996087 L15.9187127,12.996087 L15.9187127,15.1628014 L12.8275734,15.1628014 L12.8275734,15.6584234 L15.9187127,15.6584234 L15.9187127,16.4106201 C15.9187127,19.7274459 13.1606999,22.4255833 9.77111895,22.4255833 L9.77111895,22.4255833 Z" id="Fill-113"></path>
        </g>
    </g>
</svg>