<?xml version="1.0" encoding="iso-8859-1"?>
<!-- Generator: Adobe Illustrator 16.0.0, SVG Export Plug-In . SVG Version: 6.00 Build 0)  -->
<!DOCTYPE svg PUBLIC "-//W3C//DTD SVG 1.1//EN" "http://www.w3.org/Graphics/SVG/1.1/DTD/svg11.dtd">
<svg version="1.1" id="Layer_1" xmlns="http://www.w3.org/2000/svg" xmlns:xlink="http://www.w3.org/1999/xlink" x="0px" y="0px"
	 width="223.571px" height="221.039px" viewBox="0 0 223.571 221.039" style="enable-background:new 0 0 223.571 221.039;"
	 xml:space="preserve">
<path style="fill:#CCCCCC;stroke:#000000;stroke-width:2;stroke-miterlimit:10;" d="M145.018,31.454c0,0-69.333-6.95-69.333,91.505
	c2.109,19.253,16.666,36.773,16.666,36.773s33,55.805,51.25,52.805c0,0,21.5,5.89,55.25-52.805c21.087-52.226,17-64.195,17-64.195
	S207.935,30.371,145.018,31.454z"/>
<path style="fill:#CCCCCC;stroke:#000000;stroke-width:2;stroke-miterlimit:10;" d="M96.851,156.788"/>
<path style="fill:#CCCCCC;stroke:#000000;stroke-width:2;stroke-miterlimit:10;" d="M96.851,156.788
	c-17.396,0-31.5-14.103-31.5-31.5s14.104-31.5,31.5-31.5s31.5,14.103,31.5,31.5c0,1.693-0.134,3.355-0.391,4.976"/>
<path style="fill:#CCCCCC;stroke:#000000;stroke-width:2;stroke-miterlimit:10;" d="M160.994,130.459
	c-2.856-17.16,8.74-33.388,25.9-36.244c17.161-2.856,33.389,8.741,36.244,25.901c2.856,17.16-8.739,33.388-25.9,36.244
	c-1.671,0.278-3.332,0.418-4.973,0.431"/>
<ellipse cx="125.476" cy="169.9" rx="5.375" ry="7.489"/>
<ellipse cx="163.726" cy="169.9" rx="5.375" ry="7.489"/>
<ellipse style="fill:#FFFFFF;" cx="163.601" cy="168.695" rx="1.75" ry="2.967"/>
<ellipse style="fill:#FFFFFF;" cx="126.913" cy="168.695" rx="1.438" ry="2.967"/>
<path d="M145.927,206.789c0,0-9.992-5.916-5.825-12.083h11.25C151.352,194.706,156.269,198.789,145.927,206.789z"/>
<path style="fill:none;stroke:#000000;stroke-miterlimit:10;" d="M131.935,194.206c0,0-16.916-12.916-46.416-1"/>
<path style="fill:none;stroke:#000000;stroke-miterlimit:10;" d="M91.852,208.706c0,0,18.918-24.334,43.084-9.417"/>
<path style="fill:none;stroke:#000000;stroke-miterlimit:10;" d="M134.936,202.622c0,0-21.25-14.083-28.667,18.417"/>
<path style="fill:none;stroke:#000000;stroke-miterlimit:10;" d="M185.437,220.537c0,0-5.916-31.249-29-17.583"/>
<path style="fill:none;stroke:#000000;stroke-miterlimit:10;" d="M156.437,199.496c0,0,25.999-14.871,43.166,9.21"/>
<path style="fill:none;stroke:#000000;stroke-miterlimit:10;" d="M159.937,194.206c0,0,30.416-13.92,46.083-1.503"/>
<path style="fill:#CCCCCC;stroke:#000000;stroke-width:2;stroke-miterlimit:10;" d="M153.851,31.348
	c0,0-38.999-54.727-90.666-19.561c-35.5,31.5-39,35.833-61.167,30.167c-7.833,1.167,8.333,11.333,28,5.5
	c15-5.334,65.667-66.878,104.833-16.106H153.851z"/>
<line style="fill:none;stroke:#7F7F78;stroke-miterlimit:10;" x1="145.803" y1="39.288" x2="145.803" y2="55.288"/>
<line style="fill:none;stroke:#7F7F78;stroke-miterlimit:10;" x1="120.101" y1="49.247" x2="130.851" y2="55.288"/>
<line style="fill:none;stroke:#7F7F78;stroke-miterlimit:10;" x1="103.851" y1="65.486" x2="113.394" y2="76.308"/>
<line style="fill:none;stroke:#7F7F78;stroke-miterlimit:10;" x1="113.394" y1="61.788" x2="125.476" y2="67.416"/>
<line style="fill:none;stroke:#7F7F78;stroke-miterlimit:10;" x1="96.851" y1="88.622" x2="108.727" y2="88.622"/>
<line style="fill:none;stroke:#7F7F78;stroke-miterlimit:10;" x1="122.851" y1="95.758" x2="131.935" y2="100.93"/>
<line style="fill:none;stroke:#7F7F78;stroke-miterlimit:10;" x1="127.393" y1="84.657" x2="134.936" y2="90.66"/>
<line style="fill:none;stroke:#7F7F78;stroke-miterlimit:10;" x1="139.085" y1="64.602" x2="139.085" y2="75.887"/>
<line style="fill:none;stroke:#7F7F78;stroke-miterlimit:10;" x1="134.936" y1="44.788" x2="139.085" y2="52.267"/>
<line style="fill:none;stroke:#7F7F78;stroke-miterlimit:10;" x1="152.52" y1="57.288" x2="169.101" y2="48.527"/>
<line style="fill:none;stroke:#7F7F78;stroke-miterlimit:10;" x1="161.851" y1="70.245" x2="178.02" y2="64.602"/>
<line style="fill:none;stroke:#7F7F78;stroke-miterlimit:10;" x1="182.978" y1="84.826" x2="195.851" y2="81.144"/>
<line style="fill:none;stroke:#7F7F78;stroke-miterlimit:10;" x1="178.02" y1="75.887" x2="189.414" y2="75.887"/>
<line style="fill:none;stroke:#7F7F78;stroke-miterlimit:10;" x1="158.351" y1="92.101" x2="170.937" y2="92.101"/>
<line style="fill:none;stroke:#7F7F78;stroke-miterlimit:10;" x1="152.52" y1="81.144" x2="161.851" y2="76.308"/>
<line style="fill:none;stroke:#7F7F78;stroke-miterlimit:10;" x1="149.351" y1="102.643" x2="159.937" y2="103.287"/>
<line style="fill:none;stroke:#7F7F78;stroke-miterlimit:10;" x1="145.803" y1="90.66" x2="143.351" y2="105.493"/>
<line style="fill:none;stroke:#7F7F78;stroke-miterlimit:10;" x1="149.351" y1="117.178" x2="149.351" y2="125.287"/>
<line style="fill:none;stroke:#7F7F78;stroke-miterlimit:10;" x1="139.085" y1="125.287" x2="139.085" y2="131.227"/>
<line style="fill:none;stroke:#7F7F78;stroke-miterlimit:10;" x1="127.393" y1="145.546" x2="134.936" y2="153.257"/>
<line style="fill:none;stroke:#7F7F78;stroke-miterlimit:10;" x1="144.577" y1="145.723" x2="144.577" y2="153.257"/>
<line style="fill:none;stroke:#7F7F78;stroke-miterlimit:10;" x1="170.937" y1="145.723" x2="163.601" y2="149.718"/>
<line style="fill:none;stroke:#7F7F78;stroke-miterlimit:10;" x1="185.437" y1="165.727" x2="178.02" y2="165.727"/>
<line style="fill:none;stroke:#7F7F78;stroke-miterlimit:10;" x1="145.803" y1="168.753" x2="145.803" y2="174.719"/>
<line style="fill:none;stroke:#7F7F78;stroke-miterlimit:10;" x1="134.936" y1="175.549" x2="134.936" y2="184.869"/>
<line style="fill:none;stroke:#7F7F78;stroke-miterlimit:10;" x1="153.851" y1="177.412" x2="153.851" y2="182.786"/>
<line style="fill:none;stroke:#7F7F78;stroke-miterlimit:10;" x1="106.269" y1="159.732" x2="108.727" y2="161.005"/>
<line style="fill:none;stroke:#7F7F78;stroke-miterlimit:10;" x1="85.519" y1="145.546" x2="91.852" y2="136.826"/>
<line style="fill:none;stroke:#7F7F78;stroke-miterlimit:10;" x1="75.685" y1="130.826" x2="83.351" y2="130.826"/>
<line style="fill:none;stroke:#7F7F78;stroke-miterlimit:10;" x1="79.518" y1="112.798" x2="85.519" y2="118.641"/>
<line style="fill:none;stroke:#7F7F78;stroke-miterlimit:10;" x1="96.851" y1="104.094" x2="96.851" y2="117.178"/>
<line style="fill:none;stroke:#7F7F78;stroke-miterlimit:10;" x1="103.851" y1="122.025" x2="113.394" y2="116.44"/>
<line style="fill:none;stroke:#7F7F78;stroke-miterlimit:10;" x1="113.394" y1="128.257" x2="122.851" y2="128.285"/>
<line style="fill:none;stroke:#7F7F78;stroke-miterlimit:10;" x1="96.851" y1="128.285" x2="102.788" y2="132.655"/>
<line style="fill:none;stroke:#7F7F78;stroke-miterlimit:10;" x1="108.727" y1="143.788" x2="118.122" y2="147.721"/>
<line style="fill:none;stroke:#7F7F78;stroke-miterlimit:10;" x1="167.269" y1="122.959" x2="178.02" y2="125.288"/>
<line style="fill:none;stroke:#7F7F78;stroke-miterlimit:10;" x1="178.02" y1="107.202" x2="181.728" y2="117.178"/>
<line style="fill:none;stroke:#7F7F78;stroke-miterlimit:10;" x1="192.066" y1="116.44" x2="192.066" y2="103.287"/>
<line style="fill:none;stroke:#7F7F78;stroke-miterlimit:10;" x1="199.603" y1="119.7" x2="213.676" y2="115.72"/>
<line style="fill:none;stroke:#7F7F78;stroke-miterlimit:10;" x1="206.02" y1="129.996" x2="210.851" y2="134.826"/>
<line style="fill:none;stroke:#7F7F78;stroke-miterlimit:10;" x1="199.603" y1="140.744" x2="199.603" y2="149.718"/>
<line style="fill:none;stroke:#7F7F78;stroke-miterlimit:10;" x1="185.437" y1="138.326" x2="181.728" y2="145.754"/>
<line style="fill:none;stroke:#7F7F78;stroke-miterlimit:10;" x1="189.414" y1="132.411" x2="175.851" y2="134.826"/>
</svg>
