<?xml version="1.0" encoding="UTF-8"?>
<svg width="14px" height="12px" viewBox="0 0 14 12" version="1.1" xmlns="http://www.w3.org/2000/svg" xmlns:xlink="http://www.w3.org/1999/xlink">
    <!-- Generator: Sketch 39.1 (31720) - http://www.bohemiancoding.com/sketch -->
    <title>Shape</title>
    <desc>Created with Sketch.</desc>
    <defs></defs>
    <g id="Page-1" stroke="none" stroke-width="1" fill="none" fill-rule="evenodd">
        <path d="M4.40272,11.59 C9.68576,11.59 12.57536,7.21304 12.57536,3.41736 C12.57536,3.29304 12.57536,3.16928 12.56696,3.04608 C13.1291056,2.63947008 13.6143591,2.13601246 14,1.55928 C13.4757723,1.79156899 12.9196644,1.94390404 12.35024,2.0112 C12.9498566,1.65222995 13.3986292,1.08763231 13.61304,0.42248 C13.0492082,0.757054977 12.4323618,0.992846731 11.78912,1.11968 C10.8987664,0.172940796 9.48400284,-0.0587769528 8.33814759,0.55446076 C7.19229235,1.16769847 6.60031399,2.47338241 6.89416,3.73936 C4.58466161,3.62357974 2.43290644,2.53274103 0.9744,0.73832 C0.212028744,2.05076105 0.601433215,3.72976131 1.86368,4.57264 C1.40657507,4.55909223 0.959436448,4.43578338 0.56,4.21312 L0.56,4.24952 C0.560374154,5.61681206 1.52418083,6.79445969 2.8644,7.0652 C2.44152697,7.18052643 1.99784513,7.19738481 1.56744,7.11448 C1.94373084,8.28455678 3.02208175,9.08611896 4.25096,9.1092 C3.23385162,9.90856189 1.97739333,10.3425035 0.68376,10.3412 C0.455225999,10.3407613 0.226914277,10.3269242 0,10.29976 C1.31355613,11.1427149 2.8419515,11.5898415 4.40272,11.58776" id="Shape" fill="#595959"></path>
    </g>
</svg>