<?xml version="1.0" encoding="UTF-8"?>
<svg width="70px" height="69px" viewBox="0 0 70 69" version="1.1" xmlns="http://www.w3.org/2000/svg" xmlns:xlink="http://www.w3.org/1999/xlink">
    <!-- Generator: Sketch 46.2 (44496) - http://www.bohemiancoding.com/sketch -->
    <title>Shape</title>
    <desc>Created with Sketch.</desc>
    <defs>
        <radialGradient cx="49.9985521%" cy="49.9992758%" fx="49.9985521%" fy="49.9992758%" r="49.9884169%" gradientTransform="translate(0.499986,0.499993),scale(0.999609,1.000000),translate(-0.499986,-0.499993)" id="radialGradient-1">
            <stop stop-color="#FBC90D" offset="0%"></stop>
            <stop stop-color="#FDB913" offset="100%"></stop>
        </radialGradient>
    </defs>
    <g id="Page-1" stroke="none" stroke-width="1" fill="none" fill-rule="evenodd">
        <path d="M69.263,19.852 C67.193,21.104 65.473,21.049 64.11,19.682 C63.674,19.25 63.205,18.651 62.692,17.879 C62.076,16.955 61.554,16.277 61.116,15.842 C60.337,15.061 59.345,14.613 58.142,14.508 C56.939,14.403 55.692,14.643 54.403,15.229 C54.948,14.067 55.206,12.885 55.168,11.678 C55.128,10.465 54.689,9.438 53.835,8.584 C53.369,8.117 52.687,7.578 51.777,6.969 C51.008,6.457 50.41,5.983 49.965,5.537 C49.377,4.949 49.038,4.199 48.941,3.281 C48.852,2.367 49.158,1.424 49.868,0.457 L49.449,0.027 L49.372,0.144 L49.397,0 L48.854,0 C48.278,2.357 47.022,3.529 45.091,3.529 C44.481,3.529 43.724,3.439 42.811,3.261 C41.731,3.036 40.879,2.929 40.261,2.929 C39.157,2.929 38.141,3.314 37.216,4.087 C36.294,4.866 35.576,5.915 35.08,7.241 C34.646,6.036 33.988,5.014 33.104,4.188 C32.225,3.356 31.182,2.944 29.979,2.944 C29.32,2.944 28.453,3.049 27.38,3.26 C26.477,3.436 25.713,3.528 25.088,3.528 C24.257,3.528 23.484,3.233 22.77,2.657 C22.056,2.071 21.609,1.184 21.424,0.003 L20.828,6.66133815e-16 L20.857,0.145 L20.782,0.028 L20.4,0.412 C21.653,2.478 21.596,4.201 20.231,5.57 C19.803,5.996 19.2,6.473 18.43,6.988 C17.504,7.599 16.83,8.121 16.389,8.556 C15.612,9.337 15.168,10.331 15.058,11.533 C14.95,12.734 15.193,13.986 15.778,15.273 C14.622,14.728 13.433,14.472 12.227,14.507 C11.016,14.544 9.987,14.987 9.131,15.839 C8.66,16.306 8.123,16.991 7.518,17.898 C7.005,18.664 6.528,19.267 6.088,19.71 C5.502,20.302 4.749,20.636 3.829,20.731 C2.914,20.823 1.974,20.514 1.004,19.801 L0.581,20.231 L0.64,20.27 L0.64,20.731 C2.989,21.307 4.165,22.563 4.165,24.501 C4.165,25.106 4.073,25.866 3.896,26.778 C3.674,27.858 3.566,28.708 3.566,29.331 C3.563,30.433 3.95,31.448 4.727,32.374 C5.501,33.302 6.549,34.011 7.876,34.507 C6.673,34.946 5.654,35.603 4.827,36.48 C3.994,37.363 3.579,38.408 3.582,39.609 C3.579,40.271 3.687,41.132 3.895,42.207 C4.072,43.107 4.164,43.877 4.164,44.5 C4.164,45.328 3.871,46.102 3.293,46.816 C2.706,47.531 1.827,47.98 0.64,48.16 L0.64,48.762 L0.722,48.741 L0.581,48.837 L0.958,49.22 C3.03,47.966 4.75,48.021 6.116,49.39 C6.547,49.818 7.019,50.419 7.536,51.193 C8.148,52.111 8.672,52.793 9.11,53.228 C9.888,54.007 10.883,54.457 12.082,54.56 C13.287,54.671 14.531,54.427 15.821,53.841 C15.277,54.999 15.023,56.187 15.057,57.398 C15.094,58.607 15.534,59.638 16.386,60.488 C16.859,60.955 17.543,61.492 18.448,62.101 C19.21,62.611 19.815,63.087 20.259,63.533 C20.846,64.117 21.189,64.873 21.282,65.787 C21.372,66.707 21.066,67.646 20.352,68.613 L20.781,69.039 L20.897,68.865 L21.278,68.865 C21.854,66.515 23.111,65.34 25.044,65.34 C25.652,65.34 26.413,65.426 27.323,65.61 C28.407,65.831 29.258,65.936 29.877,65.936 C30.981,65.936 31.989,65.553 32.917,64.778 C33.847,64.005 34.558,62.954 35.053,61.628 C35.489,62.833 36.152,63.849 37.032,64.675 C37.915,65.509 38.956,65.923 40.16,65.923 C40.815,65.923 41.681,65.821 42.757,65.607 C43.655,65.431 44.419,65.341 45.051,65.341 C45.879,65.341 46.651,65.634 47.364,66.212 C48.078,66.798 48.526,67.681 48.711,68.866 L49.233,68.866 L49.269,68.925 L49.648,68.54 C48.397,66.472 48.452,64.751 49.823,63.388 C50.25,62.954 50.849,62.484 51.625,61.966 C52.546,61.355 53.223,60.835 53.66,60.396 C54.439,59.615 54.886,58.623 54.989,57.421 C55.097,56.218 54.862,54.976 54.272,53.683 C55.433,54.228 56.621,54.48 57.827,54.449 C59.038,54.41 60.066,53.965 60.922,53.115 C61.385,52.65 61.928,51.963 62.531,51.058 C63.042,50.292 63.523,49.687 63.964,49.24 C64.55,48.656 65.303,48.314 66.214,48.22 C67.137,48.128 68.079,48.441 69.048,49.148 L69.456,48.738 L69.59,48.765 L69.59,48.224 C67.236,47.646 66.063,46.392 66.063,44.458 C66.063,43.849 66.152,43.093 66.328,42.177 C66.549,41.099 66.664,40.245 66.664,39.626 C66.664,38.526 66.272,37.505 65.5,36.583 C64.728,35.659 63.675,34.948 62.346,34.448 C63.551,34.012 64.569,33.352 65.399,32.473 C66.23,31.594 66.646,30.549 66.646,29.344 C66.646,28.688 66.542,27.819 66.329,26.746 C66.153,25.848 66.064,25.078 66.064,24.453 C66.064,23.621 66.35,22.851 66.936,22.137 C67.518,21.422 68.402,20.981 69.591,20.793 L69.591,20.27 L69.647,20.233 L69.263,19.852 L69.263,19.852 Z" id="Shape" fill="url(#radialGradient-1)" fill-rule="nonzero"></path>
        <path d="M41.815,54.953 C41.229,55.534 40.098,55.83 39.302,55.613 L20.758,50.547 C19.963,50.329 19.14,49.499 18.931,48.7 L14.062,30.112 C13.853,29.314 14.162,28.186 14.748,27.605 L28.401,14.085 C28.987,13.504 30.118,13.207 30.914,13.424 L49.464,18.487 C50.26,18.704 51.082,19.535 51.292,20.333 L56.163,38.923 C56.372,39.721 56.063,40.849 55.477,41.429 L41.815,54.953 L41.815,54.953 Z M35.113,20.092 C27.142,20.092 20.687,26.551 20.687,34.516 C20.687,42.481 27.142,48.936 35.113,48.946 C43.078,48.938 49.537,42.481 49.539,34.516 C49.534,26.551 43.078,20.092 35.113,20.092 Z" id="Shape" fill="#FFFFFF" fill-rule="nonzero"></path>
    </g>
</svg>